<svg width="24" height="24" viewBox="0 0 24 24" fill="none" xmlns="http://www.w3.org/2000/svg">
<path d="M7.20005 2.39999C6.56353 2.39999 5.95308 2.65285 5.50299 3.10294C5.05291 3.55302 4.80005 4.16347 4.80005 4.79999V19.2C4.80005 19.8365 5.05291 20.447 5.50299 20.8971C5.95308 21.3471 6.56353 21.6 7.20005 21.6H12.3084C12.0028 21.2298 11.7385 20.8275 11.52 20.4H7.20005C6.88179 20.4 6.57656 20.2736 6.35152 20.0485C6.12648 19.8235 6.00005 19.5183 6.00005 19.2H11.0484C10.7275 18.0695 10.7142 16.8739 11.0099 15.7366C11.3057 14.5993 11.8997 13.5615 12.7306 12.7306C13.5616 11.8996 14.5993 11.3056 15.7366 11.0099C16.8739 10.7142 18.0696 10.7275 19.2 11.0484V4.79999C19.2 4.16347 18.9472 3.55302 18.4971 3.10294C18.047 2.65285 17.4366 2.39999 16.8 2.39999H7.20005ZM8.10005 5.39999H15.9C16.1387 5.39999 16.3677 5.49482 16.5364 5.6636C16.7052 5.83238 16.8 6.0613 16.8 6.29999C16.8 6.53869 16.7052 6.76761 16.5364 6.93639C16.3677 7.10517 16.1387 7.19999 15.9 7.19999H8.10005C7.86135 7.19999 7.63244 7.10517 7.46365 6.93639C7.29487 6.76761 7.20005 6.53869 7.20005 6.29999C7.20005 6.0613 7.29487 5.83238 7.46365 5.6636C7.63244 5.49482 7.86135 5.39999 8.10005 5.39999ZM22.8 17.4C22.8 18.8322 22.2311 20.2057 21.2184 21.2184C20.2057 22.2311 18.8322 22.8 17.4 22.8C15.9679 22.8 14.5944 22.2311 13.5817 21.2184C12.569 20.2057 12 18.8322 12 17.4C12 15.9678 12.569 14.5943 13.5817 13.5816C14.5944 12.5689 15.9679 12 17.4 12C18.8322 12 20.2057 12.5689 21.2184 13.5816C22.2311 14.5943 22.8 15.9678 22.8 17.4ZM18 15C18 14.8409 17.9368 14.6883 17.8243 14.5757C17.7118 14.4632 17.5592 14.4 17.4 14.4C17.2409 14.4 17.0883 14.4632 16.9758 14.5757C16.8633 14.6883 16.8 14.8409 16.8 15V16.8H15C14.8409 16.8 14.6883 16.8632 14.5758 16.9757C14.4633 17.0883 14.4 17.2409 14.4 17.4C14.4 17.5591 14.4633 17.7117 14.5758 17.8243C14.6883 17.9368 14.8409 18 15 18H16.8V19.8C16.8 19.9591 16.8633 20.1117 16.9758 20.2243C17.0883 20.3368 17.2409 20.4 17.4 20.4C17.5592 20.4 17.7118 20.3368 17.8243 20.2243C17.9368 20.1117 18 19.9591 18 19.8V18H19.8C19.9592 18 20.1118 17.9368 20.2243 17.8243C20.3368 17.7117 20.4 17.5591 20.4 17.4C20.4 17.2409 20.3368 17.0883 20.2243 16.9757C20.1118 16.8632 19.9592 16.8 19.8 16.8H18V15Z" fill="white"/>
</svg>
